<svg width="16" height="17" viewBox="0 0 16 17" fill="none" xmlns="http://www.w3.org/2000/svg">
<g id="Group">
<path id="Vector" d="M13.668 13.0302H12.2044C12.2374 12.9613 12.2735 12.8877 12.3114 12.8105C12.4716 12.484 12.6532 12.114 12.7574 11.7914C13.1651 10.5285 13.7146 9.58114 14.2964 8.57822C14.477 8.26687 14.6637 7.94496 14.8454 7.6138C15.0943 7.17484 15.1453 6.27136 15.1453 6.05256C15.1453 5.27775 14.7269 4.56583 14.0735 4.18059C14.1427 2.89707 13.1476 1.79179 11.8824 1.7091C11.1184 0.301468 9.0784 0.105071 8.05182 1.32146C7.11928 0.168922 5.25075 0.318532 4.50723 1.60827C3.22605 1.53914 2.12305 2.53075 2.03692 3.79274C1.31274 4.18603 0.846252 4.95887 0.841595 5.822C0.841595 5.82259 0.84147 5.82315 0.84147 5.82375C0.841377 5.82706 0.841439 5.83028 0.841376 5.83359C0.841376 5.83413 0.841345 5.83466 0.841376 5.83519C0.813748 7.13421 1.38844 8.04322 1.85062 8.77399C1.95675 8.94185 2.05701 9.10037 2.14218 9.25132C2.1474 9.26054 2.15293 9.26961 2.15874 9.27848C2.61852 9.97797 2.82745 10.6762 3.0295 11.3514C3.20677 11.9438 3.37501 12.5056 3.69392 13.0303H2.33195C1.04612 13.0302 0 14.0763 0 15.3622V16.0465C0 16.3054 0.209899 16.5153 0.468803 16.5153H15.5312C15.7901 16.5153 16 16.3054 16 16.0465V15.3622C16 14.0763 14.9539 13.0302 13.668 13.0302ZM1.77883 5.84613C1.77886 5.84419 1.77864 5.84228 1.77867 5.84034C1.77714 5.23978 2.14274 4.71072 2.68934 4.52692C2.82294 4.48194 2.99509 4.45334 3.47927 4.38465C3.73561 4.34827 3.91391 4.11096 3.87756 3.85462C3.84122 3.59831 3.60416 3.42032 3.34754 3.45633C3.23334 3.47255 3.1337 3.48686 3.04544 3.50011C3.2599 2.84669 3.98676 2.41499 4.68522 2.57423C4.91284 2.62301 5.14164 2.4969 5.2225 2.27866C5.64017 1.17285 7.22654 1.22648 7.56236 2.3592V2.47465C7.56236 3.02559 7.11415 3.4738 6.56321 3.4738C6.30431 3.4738 6.09441 3.68369 6.09441 3.9426C6.09441 4.2015 6.30431 4.4114 6.56321 4.4114C6.9285 4.4114 7.27048 4.30977 7.56236 4.13328V4.70594C7.58714 5.32794 8.47543 5.32747 8.49996 4.70594V2.37602C8.8505 1.39168 10.1729 1.13453 10.87 1.90206C10.5707 2.04013 10.3025 2.24222 10.0935 2.49431C9.92816 2.69361 9.95575 2.98915 10.1551 3.15442C10.3532 3.319 10.6492 3.29293 10.8152 3.09282C11.0167 2.84982 11.3152 2.68677 11.6355 2.64405C12.3981 2.59495 13.0617 3.17548 13.1321 3.92122C12.7305 3.90666 12.4375 4.00092 12.233 4.08555C11.9938 4.18459 11.8801 4.45878 11.9792 4.69803C12.0782 4.93971 12.3583 5.05019 12.5916 4.95193C12.7143 4.90114 12.9679 4.79691 13.4274 4.90546C13.8952 5.09032 14.2078 5.54784 14.2078 6.05253C14.2078 6.42141 14.113 7.0067 14.0298 7.15124C14.0282 7.15402 14.0267 7.15681 14.0252 7.15962C13.4858 8.14173 12.9381 8.98345 12.4452 10.0366H12.0112C10.9562 10.0366 10.0979 10.8949 10.0979 11.9499C10.0979 12.2088 10.3078 12.4187 10.5667 12.4187C10.8256 12.4187 11.0355 12.2088 11.0355 11.9499C11.0355 11.4119 11.4732 10.9742 12.0112 10.9742H12.0498C11.9857 11.1453 11.9239 11.3213 11.8652 11.5034C11.7818 11.7616 11.616 12.0994 11.4698 12.3973C11.425 12.4886 11.3823 12.5755 11.3444 12.6553C11.2566 12.8343 11.1455 12.998 11.0162 13.1442C10.9896 13.1672 10.9656 13.1932 10.9447 13.2216C10.53 13.6482 9.95156 13.903 9.34243 13.903H6.56862C5.72259 13.903 4.95997 13.434 4.57836 12.6788C4.5702 12.6627 4.56114 12.6471 4.5512 12.6321C4.25886 12.1891 4.10543 11.6764 3.92779 11.0827C3.92054 11.0584 3.91313 11.0338 3.90579 11.0093H4.02736C4.56536 11.0093 5.00307 11.447 5.00307 11.985C5.00307 12.2439 5.21297 12.4538 5.47187 12.4538C5.73077 12.4538 5.94067 12.2439 5.94067 11.985C5.94067 10.93 5.08236 10.0717 4.02736 10.0717H3.59769C3.43989 9.65281 3.23868 9.2171 2.95093 8.7768C2.85632 8.61006 2.75259 8.44614 2.64299 8.27281C2.20609 7.58195 1.75432 6.86759 1.77883 5.84613ZM15.0624 15.5777H0.937606V15.3622C0.937606 14.5933 1.56311 13.9678 2.33195 13.9678H4.38284C4.96103 14.5207 5.73627 14.8406 6.56859 14.8406H9.3424C9.93587 14.8406 10.5157 14.6746 11.0192 14.3604C11.2018 14.2465 11.3712 14.1147 11.5256 13.9678H13.668C14.4369 13.9678 15.0624 14.5933 15.0624 15.3622V15.5777Z" fill="#F6FEFF"/>
<path id="Vector_2" d="M7.1494 9.75658C6.91941 9.75658 6.73295 9.94303 6.73295 10.173C6.75489 10.7254 7.54401 10.7253 7.56586 10.173C7.56582 9.94303 7.3794 9.75658 7.1494 9.75658Z" fill="#F6FEFF"/>
<path id="Vector_3" d="M8.85063 10.5895C9.08062 10.5895 9.26708 10.403 9.26708 10.173C9.24514 9.62061 8.45602 9.62077 8.43417 10.173C8.43417 10.403 8.62063 10.5895 8.85063 10.5895Z" fill="#F6FEFF"/>
<path id="Vector_4" d="M5.74181 8.99808H7.08805C7.34696 8.99808 7.55686 8.78818 7.55686 8.52928V8.47946C7.55686 6.89553 6.26824 5.60692 4.68431 5.60692H3.33807C3.07916 5.60692 2.86926 5.81682 2.86926 6.07572V6.12554C2.86926 7.70944 4.15788 8.99808 5.74181 8.99808ZM4.68431 6.54452C5.60739 6.54452 6.3816 7.19432 6.57356 8.06048H5.74181C4.81873 8.06048 4.04452 7.41069 3.85256 6.54452H4.68431Z" fill="#F6FEFF"/>
<path id="Vector_5" d="M8.94627 8.99808H10.2925C11.8764 8.99808 13.1651 7.70947 13.1651 6.12554V6.07572C13.1651 5.81682 12.9552 5.60692 12.6963 5.60692H11.35C9.76608 5.60692 8.47746 6.89553 8.47746 8.47946V8.52928C8.47746 8.78818 8.68736 8.99808 8.94627 8.99808ZM11.35 6.54452H12.1818C11.9898 7.41069 11.2156 8.06048 10.2925 8.06048H9.46076C9.65275 7.19432 10.4269 6.54452 11.35 6.54452Z" fill="#F6FEFF"/>
<path id="Vector_6" d="M6.88341 11.3085C6.2614 11.3333 6.26187 12.2216 6.88341 12.2461H7.26611C7.32155 12.2461 7.37368 12.2677 7.4129 12.3069L7.66521 12.5592C7.8483 12.7423 8.14511 12.7423 8.32819 12.5592L8.58047 12.3069C8.61973 12.2677 8.67189 12.2461 8.72733 12.2461H9.11656C9.73857 12.2213 9.7381 11.333 9.11656 11.3085H8.72733C8.45743 11.3085 8.20177 11.4013 7.99669 11.5717C7.79167 11.4013 7.53601 11.3085 7.26607 11.3085H6.88341Z" fill="#F6FEFF"/>
</g>
</svg>
