<svg width="16" height="17" viewBox="0 0 16 17" fill="none" xmlns="http://www.w3.org/2000/svg">
<path d="M15.9814 7.95801C15.9686 7.84509 15.9232 7.72086 15.8026 7.62715C15.7594 7.59341 14.8134 6.86505 13.4889 6.56384L13.4888 6.0637C13.4882 3.03537 11.024 0.571638 7.99564 0.571638C4.79993 0.55889 2.29642 3.31501 2.50245 6.48367C0.997647 6.767 0.177957 7.6389 0.140837 7.67915C0.0864388 7.7417 0.0264477 7.83684 0.0184802 7.95801C-0.0456978 8.90603 -0.0594144 11.8803 2.0529 13.3025C2.71067 13.8182 3.18595 14.1908 3.18595 16.083C3.18595 16.3418 3.39579 16.5517 3.65463 16.5517H12.3452C12.604 16.5517 12.8139 16.3418 12.8139 16.083C12.8139 14.1908 13.2891 13.8182 13.9469 13.3025C16.0675 11.8765 16.0445 8.87847 15.9814 7.95801ZM8.66835 12.5403V13.4581C8.276 13.5209 7.70953 13.5205 7.33155 13.4613V12.5403C7.33155 12.29 7.30018 12.0459 7.24175 11.8109C7.43938 11.7817 7.7045 11.7594 8.01064 11.7604C8.31022 11.7612 8.55859 11.7845 8.75715 11.815C8.69935 12.0487 8.66835 12.2914 8.66835 12.5403ZM7.33155 14.4075C7.72321 14.4543 8.26513 14.4552 8.66835 14.4042V15.6143H7.33155V14.4075ZM9.13266 10.93C8.84948 10.8716 8.47785 10.8242 8.01283 10.8231C7.60004 10.8219 7.20116 10.858 6.86453 10.9256C6.40778 10.197 5.64627 9.64876 4.71419 9.44188C4.36062 9.36339 3.97255 9.26485 3.57658 9.14255C3.4959 8.79979 3.45469 8.44728 3.45497 8.09143L3.44763 7.38569L4.31722 7.43768C4.79168 9.05688 7.09355 8.99948 7.48637 7.35791C7.82417 7.28358 8.1758 7.28358 8.51356 7.35791C8.90454 8.99295 11.1929 9.05819 11.6786 7.45224L12.5517 7.43271L12.5518 8.09633C12.5518 8.44978 12.5107 8.79979 12.4308 9.14027C12.0322 9.26363 11.6415 9.36293 11.2857 9.44188C10.3518 9.64923 9.58909 10.1992 9.13266 10.93ZM2.51077 7.43874L2.51764 8.0989C2.51773 8.32549 2.53251 8.55086 2.56007 8.77417C2.0663 8.56448 1.59612 8.3118 1.20355 8.00822C1.4852 7.81375 1.92385 7.57413 2.51077 7.43874ZM5.19249 6.9925C5.19249 6.60702 5.5061 6.29341 5.89158 6.29341C6.81897 6.33181 6.81872 7.65331 5.89158 7.69155C5.5061 7.69155 5.19249 7.37797 5.19249 6.9925ZM9.40924 6.9925C9.40924 6.60702 9.72285 6.29341 10.1083 6.29341C11.0357 6.33181 11.0355 7.65331 10.1083 7.69155C9.72285 7.69155 9.40924 7.37797 9.40924 6.9925ZM13.489 7.53048C13.9952 7.67046 14.429 7.87893 14.7367 8.05297C14.3584 8.33517 13.9136 8.57248 13.447 8.77111C13.4745 8.54795 13.4891 8.32274 13.4891 8.09637L13.489 7.53048ZM7.99567 1.509C10.5073 1.509 12.551 3.55232 12.5515 6.06389L12.5516 6.49517L11.6735 6.51482C11.214 5.02938 9.12966 4.96405 8.57727 6.41546C8.19573 6.34841 7.8042 6.34841 7.42263 6.41546C6.87299 4.97052 4.80152 5.02732 4.33118 6.49951L3.43982 6.44624V6.06482C3.43982 3.55273 5.48358 1.509 7.99567 1.509ZM3.67759 13.7018C3.13642 12.687 2.30914 12.5511 1.6972 11.6255C1.16603 10.8284 1.00043 9.74984 0.955091 8.98339C1.50554 9.34987 2.18116 9.66798 2.97773 9.93594C3.02066 9.95787 3.06693 9.97327 3.11505 9.98118C3.54643 10.1208 4.01189 10.2462 4.51113 10.357C5.61987 10.6031 6.39422 11.5009 6.39422 12.5402V15.6143H4.11303C4.07541 14.8021 3.93446 14.187 3.67759 13.7018ZM14.3027 11.6254C14.0137 12.0592 13.7004 12.3048 13.3687 12.5648C12.3493 13.2903 11.9433 14.1762 11.8869 15.6143H9.60571V12.5402C9.60571 11.5009 10.3801 10.6031 11.4888 10.357C12.9799 10.026 14.1711 9.56536 15.046 8.98261C15.0013 9.74787 14.8359 10.8253 14.3027 11.6254Z" fill="#F6FEFF"/>
</svg>
